<svg width="36" height="36" viewBox="0 0 84 84" fill="none" xmlns="http://www.w3.org/2000/svg">
<circle cx="42" cy="42" r="40" stroke="white" stroke-width="4"/>
<path d="M21.5227 59V29.9091H25.0455V55.875H38.5682V59H21.5227ZM44.0227 59V29.9091H53.8523C56.125 29.9091 57.9905 30.2973 59.4489 31.0739C60.9072 31.8409 61.9867 32.8968 62.6875 34.2415C63.3883 35.5862 63.7386 37.1155 63.7386 38.8295C63.7386 40.5436 63.3883 42.0634 62.6875 43.3892C61.9867 44.715 60.9119 45.7566 59.4631 46.5142C58.0142 47.2623 56.1629 47.6364 53.9091 47.6364H45.9545V44.4545H53.7955C55.3485 44.4545 56.5985 44.2273 57.5455 43.7727C58.5019 43.3182 59.1932 42.6742 59.6193 41.8409C60.0549 40.9981 60.2727 39.9943 60.2727 38.8295C60.2727 37.6648 60.0549 36.6468 59.6193 35.7756C59.1837 34.9044 58.4877 34.232 57.5312 33.7585C56.5748 33.2756 55.3106 33.0341 53.7386 33.0341H47.5455V59H44.0227ZM57.7159 45.9318L64.875 59H60.7841L53.7386 45.9318H57.7159Z" fill="white"/>
</svg>
